<mxfile host="app.diagrams.net" modified="2023-08-05T14:10:15.694Z" agent="Mozilla/5.0 (Windows NT 10.0; Win64; x64) AppleWebKit/537.36 (KHTML, like Gecko) Chrome/115.0.0.0 Safari/537.36" etag="9lkKRXBoov07P7zNsUr9" version="21.6.6" type="device">
  <diagram name="Page-1" id="mJUQnvvrvD61yQghhDxW">
    <mxGraphModel dx="2790" dy="1250" grid="1" gridSize="10" guides="1" tooltips="1" connect="1" arrows="1" fold="1" page="1" pageScale="1" pageWidth="827" pageHeight="1169" math="0" shadow="0">
      <root>
        <mxCell id="0" />
        <mxCell id="1" parent="0" />
        <mxCell id="cWyBNO3lC2UlpahkvxJ9-21" style="edgeStyle=orthogonalEdgeStyle;rounded=0;orthogonalLoop=1;jettySize=auto;html=1;exitX=0.5;exitY=1;exitDx=0;exitDy=0;" edge="1" parent="1" source="cWyBNO3lC2UlpahkvxJ9-1" target="cWyBNO3lC2UlpahkvxJ9-2">
          <mxGeometry relative="1" as="geometry" />
        </mxCell>
        <mxCell id="cWyBNO3lC2UlpahkvxJ9-1" value="start" style="rounded=1;whiteSpace=wrap;html=1;" vertex="1" parent="1">
          <mxGeometry x="720" y="80" width="120" height="60" as="geometry" />
        </mxCell>
        <mxCell id="cWyBNO3lC2UlpahkvxJ9-22" style="edgeStyle=orthogonalEdgeStyle;rounded=0;orthogonalLoop=1;jettySize=auto;html=1;exitX=0.5;exitY=1;exitDx=0;exitDy=0;" edge="1" parent="1" source="cWyBNO3lC2UlpahkvxJ9-2" target="cWyBNO3lC2UlpahkvxJ9-3">
          <mxGeometry relative="1" as="geometry" />
        </mxCell>
        <mxCell id="cWyBNO3lC2UlpahkvxJ9-2" value="Route to /" style="shape=parallelogram;perimeter=parallelogramPerimeter;whiteSpace=wrap;html=1;fixedSize=1;" vertex="1" parent="1">
          <mxGeometry x="720" y="200" width="120" height="60" as="geometry" />
        </mxCell>
        <mxCell id="cWyBNO3lC2UlpahkvxJ9-19" style="edgeStyle=orthogonalEdgeStyle;rounded=0;orthogonalLoop=1;jettySize=auto;html=1;exitX=0;exitY=0.5;exitDx=0;exitDy=0;" edge="1" parent="1" source="cWyBNO3lC2UlpahkvxJ9-3" target="cWyBNO3lC2UlpahkvxJ9-4">
          <mxGeometry relative="1" as="geometry" />
        </mxCell>
        <mxCell id="cWyBNO3lC2UlpahkvxJ9-20" style="edgeStyle=orthogonalEdgeStyle;rounded=0;orthogonalLoop=1;jettySize=auto;html=1;exitX=1;exitY=0.5;exitDx=0;exitDy=0;" edge="1" parent="1" source="cWyBNO3lC2UlpahkvxJ9-3" target="cWyBNO3lC2UlpahkvxJ9-15">
          <mxGeometry relative="1" as="geometry" />
        </mxCell>
        <mxCell id="cWyBNO3lC2UlpahkvxJ9-3" value="Login/SignUp Screen" style="shape=process;whiteSpace=wrap;html=1;backgroundOutline=1;" vertex="1" parent="1">
          <mxGeometry x="720" y="330" width="120" height="60" as="geometry" />
        </mxCell>
        <mxCell id="cWyBNO3lC2UlpahkvxJ9-8" style="edgeStyle=orthogonalEdgeStyle;rounded=0;orthogonalLoop=1;jettySize=auto;html=1;exitX=0;exitY=0.5;exitDx=0;exitDy=0;" edge="1" parent="1" source="cWyBNO3lC2UlpahkvxJ9-4" target="cWyBNO3lC2UlpahkvxJ9-5">
          <mxGeometry relative="1" as="geometry" />
        </mxCell>
        <mxCell id="cWyBNO3lC2UlpahkvxJ9-9" style="edgeStyle=orthogonalEdgeStyle;rounded=0;orthogonalLoop=1;jettySize=auto;html=1;exitX=0.5;exitY=1;exitDx=0;exitDy=0;" edge="1" parent="1" source="cWyBNO3lC2UlpahkvxJ9-4" target="cWyBNO3lC2UlpahkvxJ9-6">
          <mxGeometry relative="1" as="geometry" />
        </mxCell>
        <mxCell id="cWyBNO3lC2UlpahkvxJ9-10" style="edgeStyle=orthogonalEdgeStyle;rounded=0;orthogonalLoop=1;jettySize=auto;html=1;exitX=1;exitY=0.5;exitDx=0;exitDy=0;" edge="1" parent="1" source="cWyBNO3lC2UlpahkvxJ9-4" target="cWyBNO3lC2UlpahkvxJ9-7">
          <mxGeometry relative="1" as="geometry" />
        </mxCell>
        <mxCell id="cWyBNO3lC2UlpahkvxJ9-4" value="Choose&lt;br&gt;Login &lt;br&gt;Method" style="rhombus;whiteSpace=wrap;html=1;" vertex="1" parent="1">
          <mxGeometry x="327" y="470" width="106" height="100" as="geometry" />
        </mxCell>
        <mxCell id="cWyBNO3lC2UlpahkvxJ9-25" style="edgeStyle=orthogonalEdgeStyle;rounded=0;orthogonalLoop=1;jettySize=auto;html=1;entryX=0;entryY=0.75;entryDx=0;entryDy=0;exitX=0.5;exitY=1;exitDx=0;exitDy=0;" edge="1" parent="1" source="cWyBNO3lC2UlpahkvxJ9-5" target="cWyBNO3lC2UlpahkvxJ9-24">
          <mxGeometry relative="1" as="geometry" />
        </mxCell>
        <mxCell id="cWyBNO3lC2UlpahkvxJ9-5" value="Email/Password" style="rounded=0;whiteSpace=wrap;html=1;" vertex="1" parent="1">
          <mxGeometry x="70" y="620" width="120" height="60" as="geometry" />
        </mxCell>
        <mxCell id="cWyBNO3lC2UlpahkvxJ9-26" style="edgeStyle=orthogonalEdgeStyle;rounded=0;orthogonalLoop=1;jettySize=auto;html=1;" edge="1" parent="1" source="cWyBNO3lC2UlpahkvxJ9-6" target="cWyBNO3lC2UlpahkvxJ9-24">
          <mxGeometry relative="1" as="geometry" />
        </mxCell>
        <mxCell id="cWyBNO3lC2UlpahkvxJ9-6" value="Google" style="rounded=0;whiteSpace=wrap;html=1;" vertex="1" parent="1">
          <mxGeometry x="320" y="620" width="120" height="60" as="geometry" />
        </mxCell>
        <mxCell id="cWyBNO3lC2UlpahkvxJ9-27" style="edgeStyle=orthogonalEdgeStyle;rounded=0;orthogonalLoop=1;jettySize=auto;html=1;exitX=0.5;exitY=1;exitDx=0;exitDy=0;entryX=1;entryY=0.5;entryDx=0;entryDy=0;" edge="1" parent="1" source="cWyBNO3lC2UlpahkvxJ9-7" target="cWyBNO3lC2UlpahkvxJ9-24">
          <mxGeometry relative="1" as="geometry" />
        </mxCell>
        <mxCell id="cWyBNO3lC2UlpahkvxJ9-7" value="Facebook" style="rounded=0;whiteSpace=wrap;html=1;" vertex="1" parent="1">
          <mxGeometry x="630" y="620" width="120" height="60" as="geometry" />
        </mxCell>
        <mxCell id="cWyBNO3lC2UlpahkvxJ9-12" style="edgeStyle=orthogonalEdgeStyle;rounded=0;orthogonalLoop=1;jettySize=auto;html=1;exitX=0;exitY=0.5;exitDx=0;exitDy=0;" edge="1" parent="1" source="cWyBNO3lC2UlpahkvxJ9-15" target="cWyBNO3lC2UlpahkvxJ9-16">
          <mxGeometry relative="1" as="geometry" />
        </mxCell>
        <mxCell id="cWyBNO3lC2UlpahkvxJ9-13" style="edgeStyle=orthogonalEdgeStyle;rounded=0;orthogonalLoop=1;jettySize=auto;html=1;exitX=0.5;exitY=1;exitDx=0;exitDy=0;" edge="1" parent="1" source="cWyBNO3lC2UlpahkvxJ9-15" target="cWyBNO3lC2UlpahkvxJ9-17">
          <mxGeometry relative="1" as="geometry" />
        </mxCell>
        <mxCell id="cWyBNO3lC2UlpahkvxJ9-14" style="edgeStyle=orthogonalEdgeStyle;rounded=0;orthogonalLoop=1;jettySize=auto;html=1;exitX=1;exitY=0.5;exitDx=0;exitDy=0;" edge="1" parent="1" source="cWyBNO3lC2UlpahkvxJ9-15" target="cWyBNO3lC2UlpahkvxJ9-18">
          <mxGeometry relative="1" as="geometry" />
        </mxCell>
        <mxCell id="cWyBNO3lC2UlpahkvxJ9-15" value="Choose&lt;br&gt;Register&lt;br&gt;Method" style="rhombus;whiteSpace=wrap;html=1;" vertex="1" parent="1">
          <mxGeometry x="1127" y="450" width="106" height="100" as="geometry" />
        </mxCell>
        <mxCell id="cWyBNO3lC2UlpahkvxJ9-35" style="edgeStyle=orthogonalEdgeStyle;rounded=0;orthogonalLoop=1;jettySize=auto;html=1;exitX=0.5;exitY=1;exitDx=0;exitDy=0;entryX=0;entryY=0.5;entryDx=0;entryDy=0;" edge="1" parent="1" source="cWyBNO3lC2UlpahkvxJ9-16" target="cWyBNO3lC2UlpahkvxJ9-23">
          <mxGeometry relative="1" as="geometry" />
        </mxCell>
        <mxCell id="cWyBNO3lC2UlpahkvxJ9-16" value="Email/Password" style="rounded=0;whiteSpace=wrap;html=1;" vertex="1" parent="1">
          <mxGeometry x="860" y="620" width="120" height="60" as="geometry" />
        </mxCell>
        <mxCell id="cWyBNO3lC2UlpahkvxJ9-36" style="edgeStyle=orthogonalEdgeStyle;rounded=0;orthogonalLoop=1;jettySize=auto;html=1;entryX=0.5;entryY=0;entryDx=0;entryDy=0;" edge="1" parent="1" source="cWyBNO3lC2UlpahkvxJ9-17" target="cWyBNO3lC2UlpahkvxJ9-23">
          <mxGeometry relative="1" as="geometry" />
        </mxCell>
        <mxCell id="cWyBNO3lC2UlpahkvxJ9-17" value="Google" style="rounded=0;whiteSpace=wrap;html=1;" vertex="1" parent="1">
          <mxGeometry x="1121" y="620" width="120" height="60" as="geometry" />
        </mxCell>
        <mxCell id="cWyBNO3lC2UlpahkvxJ9-37" style="edgeStyle=orthogonalEdgeStyle;rounded=0;orthogonalLoop=1;jettySize=auto;html=1;exitX=0.5;exitY=1;exitDx=0;exitDy=0;entryX=1;entryY=0.25;entryDx=0;entryDy=0;" edge="1" parent="1" source="cWyBNO3lC2UlpahkvxJ9-18" target="cWyBNO3lC2UlpahkvxJ9-23">
          <mxGeometry relative="1" as="geometry" />
        </mxCell>
        <mxCell id="cWyBNO3lC2UlpahkvxJ9-18" value="Facebook" style="rounded=0;whiteSpace=wrap;html=1;" vertex="1" parent="1">
          <mxGeometry x="1370" y="600" width="120" height="60" as="geometry" />
        </mxCell>
        <mxCell id="cWyBNO3lC2UlpahkvxJ9-38" style="edgeStyle=orthogonalEdgeStyle;rounded=0;orthogonalLoop=1;jettySize=auto;html=1;entryX=0.5;entryY=0;entryDx=0;entryDy=0;exitX=0.5;exitY=1;exitDx=0;exitDy=0;" edge="1" parent="1" source="cWyBNO3lC2UlpahkvxJ9-40" target="cWyBNO3lC2UlpahkvxJ9-4">
          <mxGeometry relative="1" as="geometry">
            <Array as="points">
              <mxPoint x="1180" y="990" />
              <mxPoint x="787" y="990" />
              <mxPoint x="787" y="430" />
              <mxPoint x="380" y="430" />
            </Array>
          </mxGeometry>
        </mxCell>
        <mxCell id="cWyBNO3lC2UlpahkvxJ9-42" value="Yes" style="edgeLabel;html=1;align=center;verticalAlign=middle;resizable=0;points=[];" vertex="1" connectable="0" parent="cWyBNO3lC2UlpahkvxJ9-38">
          <mxGeometry x="-0.7004" relative="1" as="geometry">
            <mxPoint as="offset" />
          </mxGeometry>
        </mxCell>
        <mxCell id="cWyBNO3lC2UlpahkvxJ9-41" style="edgeStyle=orthogonalEdgeStyle;rounded=0;orthogonalLoop=1;jettySize=auto;html=1;exitX=0.5;exitY=1;exitDx=0;exitDy=0;" edge="1" parent="1" source="cWyBNO3lC2UlpahkvxJ9-23" target="cWyBNO3lC2UlpahkvxJ9-40">
          <mxGeometry relative="1" as="geometry" />
        </mxCell>
        <mxCell id="cWyBNO3lC2UlpahkvxJ9-23" value="Set Security Question and Answer" style="rounded=1;whiteSpace=wrap;html=1;" vertex="1" parent="1">
          <mxGeometry x="1120" y="770" width="120" height="60" as="geometry" />
        </mxCell>
        <mxCell id="cWyBNO3lC2UlpahkvxJ9-29" style="edgeStyle=orthogonalEdgeStyle;rounded=0;orthogonalLoop=1;jettySize=auto;html=1;exitX=0.5;exitY=1;exitDx=0;exitDy=0;" edge="1" parent="1" source="cWyBNO3lC2UlpahkvxJ9-24" target="cWyBNO3lC2UlpahkvxJ9-28">
          <mxGeometry relative="1" as="geometry" />
        </mxCell>
        <mxCell id="cWyBNO3lC2UlpahkvxJ9-24" value="Give Security Question&#39;s Answer" style="rounded=1;whiteSpace=wrap;html=1;" vertex="1" parent="1">
          <mxGeometry x="320" y="780" width="120" height="60" as="geometry" />
        </mxCell>
        <mxCell id="cWyBNO3lC2UlpahkvxJ9-30" style="edgeStyle=orthogonalEdgeStyle;rounded=0;orthogonalLoop=1;jettySize=auto;html=1;exitX=1;exitY=0.5;exitDx=0;exitDy=0;entryX=0.5;entryY=0;entryDx=0;entryDy=0;" edge="1" parent="1" source="cWyBNO3lC2UlpahkvxJ9-28" target="cWyBNO3lC2UlpahkvxJ9-4">
          <mxGeometry relative="1" as="geometry">
            <mxPoint x="540" y="974.9999999999998" as="sourcePoint" />
            <mxPoint x="590" y="479.9999999999998" as="targetPoint" />
            <Array as="points">
              <mxPoint x="30" y="965" />
              <mxPoint x="30" y="450" />
              <mxPoint x="380" y="450" />
            </Array>
          </mxGeometry>
        </mxCell>
        <mxCell id="cWyBNO3lC2UlpahkvxJ9-31" value="No" style="edgeLabel;html=1;align=center;verticalAlign=middle;resizable=0;points=[];" vertex="1" connectable="0" parent="cWyBNO3lC2UlpahkvxJ9-30">
          <mxGeometry x="-0.9161" y="-5" relative="1" as="geometry">
            <mxPoint as="offset" />
          </mxGeometry>
        </mxCell>
        <mxCell id="cWyBNO3lC2UlpahkvxJ9-45" value="No" style="edgeLabel;html=1;align=center;verticalAlign=middle;resizable=0;points=[];" vertex="1" connectable="0" parent="cWyBNO3lC2UlpahkvxJ9-30">
          <mxGeometry x="-0.6524" y="-5" relative="1" as="geometry">
            <mxPoint as="offset" />
          </mxGeometry>
        </mxCell>
        <mxCell id="cWyBNO3lC2UlpahkvxJ9-33" style="edgeStyle=orthogonalEdgeStyle;rounded=0;orthogonalLoop=1;jettySize=auto;html=1;exitX=0.5;exitY=1;exitDx=0;exitDy=0;" edge="1" parent="1" source="cWyBNO3lC2UlpahkvxJ9-28" target="cWyBNO3lC2UlpahkvxJ9-32">
          <mxGeometry relative="1" as="geometry" />
        </mxCell>
        <mxCell id="cWyBNO3lC2UlpahkvxJ9-34" value="Yes" style="edgeLabel;html=1;align=center;verticalAlign=middle;resizable=0;points=[];" vertex="1" connectable="0" parent="cWyBNO3lC2UlpahkvxJ9-33">
          <mxGeometry x="-0.2343" relative="1" as="geometry">
            <mxPoint as="offset" />
          </mxGeometry>
        </mxCell>
        <mxCell id="cWyBNO3lC2UlpahkvxJ9-28" value="Are Answers Correct?" style="rhombus;whiteSpace=wrap;html=1;" vertex="1" parent="1">
          <mxGeometry x="330" y="910" width="100" height="110" as="geometry" />
        </mxCell>
        <mxCell id="cWyBNO3lC2UlpahkvxJ9-32" value="Route to User management module" style="rounded=1;whiteSpace=wrap;html=1;" vertex="1" parent="1">
          <mxGeometry x="620" y="1070" width="120" height="60" as="geometry" />
        </mxCell>
        <mxCell id="cWyBNO3lC2UlpahkvxJ9-43" style="edgeStyle=orthogonalEdgeStyle;rounded=0;orthogonalLoop=1;jettySize=auto;html=1;exitX=1;exitY=0.5;exitDx=0;exitDy=0;entryX=1;entryY=0.25;entryDx=0;entryDy=0;" edge="1" parent="1" source="cWyBNO3lC2UlpahkvxJ9-40" target="cWyBNO3lC2UlpahkvxJ9-3">
          <mxGeometry relative="1" as="geometry">
            <Array as="points">
              <mxPoint x="1580" y="930" />
              <mxPoint x="1580" y="345" />
            </Array>
          </mxGeometry>
        </mxCell>
        <mxCell id="cWyBNO3lC2UlpahkvxJ9-44" value="NO" style="edgeLabel;html=1;align=center;verticalAlign=middle;resizable=0;points=[];" vertex="1" connectable="0" parent="cWyBNO3lC2UlpahkvxJ9-43">
          <mxGeometry x="-0.8635" y="3" relative="1" as="geometry">
            <mxPoint as="offset" />
          </mxGeometry>
        </mxCell>
        <mxCell id="cWyBNO3lC2UlpahkvxJ9-40" value="isSuccess" style="rhombus;whiteSpace=wrap;html=1;" vertex="1" parent="1">
          <mxGeometry x="1140" y="890" width="80" height="80" as="geometry" />
        </mxCell>
      </root>
    </mxGraphModel>
  </diagram>
</mxfile>
